<svg width="13" height="13" viewBox="0 0 13 13" fill="none" xmlns="http://www.w3.org/2000/svg">
<path fill-rule="evenodd" clip-rule="evenodd" d="M0.0735404 1.20639C0.0735404 0.810886 0.394159 0.490268 0.789662 0.490268C1.18517 0.490268 1.50578 0.810886 1.50578 1.20639V12.1869C1.50578 12.5824 1.18517 12.9031 0.789662 12.9031C0.394159 12.9031 0.0735404 12.5824 0.0735404 12.1869V1.20639ZM12.6283 6.19028C12.9079 6.46995 12.9079 6.92337 12.6283 7.20303L8.07089 11.7604C7.79123 12.0401 7.33781 12.0401 7.05814 11.7604C6.77848 11.4807 6.77848 11.0273 7.05814 10.7477L10.393 7.41278L3.15104 7.41278C2.75554 7.41278 2.43492 7.09216 2.43492 6.69666C2.43492 6.30115 2.75554 5.98053 3.15104 5.98053L10.393 5.98054L7.05815 2.64566C6.77848 2.366 6.77848 1.91257 7.05815 1.63291C7.33781 1.35325 7.79123 1.35325 8.07089 1.63291L12.6283 6.19028Z" fill="white"/>
</svg>
