<svg width="25" height="25" viewBox="0 0 25 25" fill="none" xmlns="http://www.w3.org/2000/svg">
<path fill-rule="evenodd" clip-rule="evenodd" d="M3.55035 7.50035C3.55035 7.23512 3.65571 6.98076 3.84325 6.79321C4.03078 6.60567 4.28514 6.50031 4.55035 6.50031H20.5504C20.8156 6.50031 21.0699 6.60567 21.2575 6.79321C21.445 6.98076 21.5504 7.23512 21.5504 7.50035C21.5504 7.76558 21.445 8.01995 21.2575 8.20749C21.0699 8.39504 20.8156 8.5004 20.5504 8.5004H4.55035C4.28514 8.5004 4.03078 8.39504 3.84325 8.20749C3.65571 8.01995 3.55035 7.76558 3.55035 7.50035ZM6.55035 12.5006C6.55035 12.2354 6.65571 11.981 6.84325 11.7935C7.03078 11.6059 7.28514 11.5005 7.55035 11.5005H17.5504C17.8156 11.5005 18.0699 11.6059 18.2575 11.7935C18.445 11.981 18.5504 12.2354 18.5504 12.5006C18.5504 12.7658 18.445 13.0202 18.2575 13.2077C18.0699 13.3953 17.8156 13.5006 17.5504 13.5006H7.55035C7.28514 13.5006 7.03078 13.3953 6.84325 13.2077C6.65571 13.0202 6.55035 12.7658 6.55035 12.5006ZM9.55035 17.5008C9.55035 17.2356 9.65571 16.9812 9.84325 16.7937C10.0308 16.6062 10.2851 16.5008 10.5504 16.5008H14.5504C14.8156 16.5008 15.0699 16.6062 15.2575 16.7937C15.445 16.9812 15.5504 17.2356 15.5504 17.5008C15.5504 17.7661 15.445 18.0204 15.2575 18.208C15.0699 18.3955 14.8156 18.5009 14.5504 18.5009H10.5504C10.2851 18.5009 10.0308 18.3955 9.84325 18.208C9.65571 18.0204 9.55035 17.7661 9.55035 17.5008Z" fill="white"/>
</svg>
