<svg width="30" height="31" viewBox="0 0 30 31" fill="none" xmlns="http://www.w3.org/2000/svg">
<path fill-rule="evenodd" clip-rule="evenodd" d="M10.4083 18.72L0.275923 2.79765C-0.351304 1.812 0.356719 0.522217 1.52501 0.522217H28.175C29.3433 0.522217 30.0513 1.812 29.4241 2.79765L19.2917 18.72V25.6917C19.2917 26.2525 18.9748 26.7651 18.4732 27.0159L12.551 29.977C11.5666 30.4692 10.4083 29.7534 10.4083 28.6528V18.72ZM4.2221 3.48332L13.138 17.494C13.2892 17.7316 13.3695 18.0073 13.3695 18.2889V26.2572L16.3306 24.7766V18.2889C16.3306 18.0073 16.4109 17.7316 16.562 17.494L25.4779 3.48332H4.2221Z" fill="white"/>
</svg>
