<svg width="16" height="16" viewBox="0 0 16 16" fill="none" xmlns="http://www.w3.org/2000/svg">
<ellipse cx="8" cy="4.66667" rx="2" ry="2" stroke="#FCFCFC"/>
<circle cx="2.66666" cy="6.66667" r="1.33333" stroke="#FCFCFC"/>
<ellipse cx="13.3333" cy="6.66667" rx="1.33333" ry="1.33333" stroke="#FCFCFC"/>
<path d="M4.66666 12C4.66666 10.1591 6.15905 8.66667 8 8.66667V8.66667C9.84095 8.66667 11.3333 10.1591 11.3333 12V13.3333H4.66666V12Z" stroke="#FCFCFC"/>
<path d="M4.849 10.9099L5.32153 11.0733L5.40975 10.8183L5.24498 10.6046L4.849 10.9099ZM4.66667 13.3333L4.66667 13.8333L5.16667 13.8333V13.3333H4.66667ZM4.33334 13.3333V13.8333L4.33334 13.8333L4.33334 13.3333ZM0.666672 13.3333H0.166672V13.8333H0.666672V13.3333ZM5.16667 12C5.16667 11.6746 5.22132 11.3631 5.32153 11.0733L4.37647 10.7464C4.24038 11.1399 4.16667 11.5619 4.16667 12H5.16667ZM5.16667 13.3333V12H4.16667V13.3333H5.16667ZM4.66667 12.8333L4.33334 12.8333L4.33334 13.8333H4.66667L4.66667 12.8333ZM4.33334 12.8333H0.666672V13.8333H4.33334V12.8333ZM1.16667 13.3333V12.3333H0.166672V13.3333H1.16667ZM1.16667 12.3333C1.16667 11.3208 1.98748 10.5 3.00001 10.5V9.5C1.4352 9.5 0.166672 10.7685 0.166672 12.3333H1.16667ZM3.00001 10.5C3.59121 10.5 4.11696 10.7793 4.45303 11.2152L5.24498 10.6046C4.72773 9.93371 3.91441 9.5 3.00001 9.5V10.5Z" fill="#FCFCFC"/>
<path d="M11.151 10.9099L10.6785 11.0733L10.5903 10.8183L10.755 10.6046L11.151 10.9099ZM11.3333 13.3333V13.8333L10.8333 13.8333V13.3333H11.3333ZM11.6667 13.3333V13.8333L11.6667 13.8333L11.6667 13.3333ZM15.3333 13.3333H15.8333V13.8333H15.3333V13.3333ZM10.8333 12C10.8333 11.6746 10.7787 11.3631 10.6785 11.0733L11.6235 10.7464C11.7596 11.1399 11.8333 11.5619 11.8333 12H10.8333ZM10.8333 13.3333V12H11.8333V13.3333H10.8333ZM11.3333 12.8333L11.6667 12.8333L11.6667 13.8333H11.3333L11.3333 12.8333ZM11.6667 12.8333H15.3333V13.8333H11.6667V12.8333ZM14.8333 13.3333V12.3333H15.8333V13.3333H14.8333ZM14.8333 12.3333C14.8333 11.3208 14.0125 10.5 13 10.5V9.5C14.5648 9.5 15.8333 10.7685 15.8333 12.3333H14.8333ZM13 10.5C12.4088 10.5 11.883 10.7793 11.547 11.2152L10.755 10.6046C11.2723 9.93372 12.0856 9.5 13 9.5V10.5Z" fill="#FCFCFC"/>
</svg>
