<svg width="16" height="16" viewBox="0 0 16 16" fill="none" xmlns="http://www.w3.org/2000/svg">
<g clip-path="url(#clip0_38_6080)">
<rect x="2.66667" y="8" width="10.6667" height="6.66667" stroke="white"/>
<rect x="1.33333" y="4" width="13.3333" height="4" rx="0.238707" stroke="white"/>
<path d="M8 15V4.33334" stroke="white"/>
<path d="M8 4.00005C8 4.00005 9.59696 4.00005 10.3333 4.00005C11.0697 4.00005 11.6667 3.4031 11.6667 2.66672C11.6667 1.93034 11.0697 1.33338 10.3333 1.33338C10.023 1.33338 9.77603 1.32239 9.33334 1.66668C8.60703 2.23154 8 4.00005 8 4.00005Z" stroke="white"/>
<path d="M8.33334 4.00005C8.33334 4.00005 6.73638 4.00005 6.00001 4.00005C5.26363 4.00005 4.66667 3.4031 4.66667 2.66672C4.66667 1.93034 5.26363 1.33338 6.00001 1.33338C6.31035 1.33338 6.55731 1.32239 7 1.66668C7.72631 2.23154 8.33334 4.00005 8.33334 4.00005Z" stroke="white"/>
</g>
<defs>
<clipPath id="clip0_38_6080">
<rect width="16" height="16" fill="white"/>
</clipPath>
</defs>
</svg>
