<svg width="244" height="51" viewBox="0 0 244 51" fill="none" xmlns="http://www.w3.org/2000/svg">
<g clip-path="url(#clip0_263_1371)">
<path d="M18.0864 0.361572L0 50.6385H225.353L243.232 0.361572H18.0864Z" fill="#0049FF"/>
<path d="M25.8179 40.7171V34.3089H37.3603C37.3603 33.2979 37.6345 31.8467 38.1829 29.9552L40.1464 23.1066C40.5179 21.8022 41.0044 20.514 41.6058 19.2421C42.2073 17.9376 42.8795 16.7799 43.6224 15.7689C44.3654 14.758 45.1526 13.9427 45.984 13.323C46.8331 12.6708 47.6822 12.3447 48.5313 12.3447H56.7569L52.5645 18.7529H50.2029C49.743 18.7529 49.2742 18.8182 48.7966 18.9486C48.319 19.0464 47.8502 19.2584 47.3903 19.5845C46.9481 19.9107 46.5324 20.3835 46.1432 21.0032C45.754 21.5902 45.4179 22.3729 45.1349 23.3512L43.304 29.7106C43.021 30.6889 42.8972 31.4879 42.9325 32.1076C42.9856 32.6946 43.1448 33.1512 43.4101 33.4773C43.6755 33.8034 44.0116 34.0317 44.4184 34.1621C44.8253 34.26 45.2587 34.3089 45.7186 34.3089H50.4418L46.1962 40.7171H25.8179Z" fill="white"/>
<path d="M55.3875 40.7171C54.3085 40.7171 53.5301 40.2443 53.0525 39.2985C52.5749 38.3202 52.3361 37.0972 52.3361 35.6297C52.3361 34.7818 52.4068 33.8686 52.5484 32.8903C52.7076 31.9119 52.9287 30.9335 53.2117 29.9552L55.1753 23.1066C55.5467 21.8022 56.0332 20.514 56.6346 19.2421C57.2361 17.9376 57.9083 16.7799 58.6513 15.7689C59.3942 14.758 60.1814 13.9427 61.0128 13.323C61.8619 12.6708 62.711 12.3447 63.5601 12.3447H67.8587C68.9378 12.3447 69.7161 12.8338 70.1937 13.8122C70.6713 14.758 70.9101 15.9646 70.9101 17.4321C70.9101 18.2801 70.8305 19.1932 70.6713 20.1716C70.5298 21.1499 70.3175 22.1283 70.0345 23.1066L68.071 29.9552C67.6995 31.2597 67.213 32.5641 66.6116 33.8686C66.0278 35.1405 65.3645 36.2819 64.6215 37.2929C63.8785 38.3039 63.0825 39.1355 62.2334 39.7877C61.402 40.4073 60.5529 40.7171 59.6861 40.7171H55.3875ZM63.8255 18.9486C63.0825 19.1117 62.3926 19.5193 61.7558 20.1716C61.119 20.8238 60.5883 21.8837 60.1637 23.3512L58.3328 29.7106C58.0852 30.6237 57.9614 31.3738 57.9614 31.9608C57.9614 32.6131 58.094 33.1022 58.3594 33.4284C58.6247 33.7545 58.9785 33.9991 59.4208 34.1621C60.1637 33.9665 60.8536 33.5588 61.4904 32.9392C62.1273 32.2869 62.6668 31.2107 63.109 29.7106L64.9399 23.3512C65.1876 22.5033 65.3114 21.7859 65.3114 21.1988C65.3114 20.514 65.1699 20.0085 64.8868 19.6824C64.6038 19.3563 64.25 19.1117 63.8255 18.9486Z" fill="white"/>
<path d="M66.9402 40.7171L75.1127 12.3447H80.1808L80.3665 20.4161H80.6054L85.4081 12.3447H90.4761L82.3036 40.7171H77.2355L81.5871 25.6504L76.8905 33.2327H76.6517L76.3599 25.6504L72.0082 40.7171H66.9402Z" fill="white"/>
<path d="M84.2655 40.7171L92.4381 12.3447H97.5061L97.6918 20.4161H97.9307L102.733 12.3447H107.801L99.6289 40.7171H94.5608L98.9124 25.6504L94.2159 33.2327H93.977L93.6852 25.6504L89.3335 40.7171H84.2655Z" fill="white"/>
<path d="M112.709 40.7171H106.871C105.792 40.7171 105.014 40.2443 104.536 39.2985C104.058 38.3202 103.82 37.0972 103.82 35.6297C103.82 34.7818 103.89 33.8686 104.032 32.8903C104.191 31.9119 104.412 30.9335 104.695 29.9552L106.659 23.1066C107.03 21.8022 107.517 20.514 108.118 19.2421C108.72 17.9376 109.392 16.7799 110.135 15.7689C110.878 14.758 111.665 13.9427 112.496 13.323C113.345 12.6708 114.195 12.3447 115.044 12.3447H123.269L119.077 18.7529H116.715C116.255 18.7529 115.787 18.8182 115.309 18.9486C114.831 19.0464 114.363 19.2584 113.903 19.5845C113.46 19.9107 113.045 20.3835 112.656 21.0032C112.266 21.5902 111.93 22.3729 111.647 23.3512H118.36L114.195 29.7106H109.816C109.569 30.5585 109.445 31.276 109.445 31.863C109.445 32.3848 109.525 32.8087 109.684 33.1348C109.843 33.4284 110.046 33.6729 110.294 33.8686C110.559 34.0317 110.86 34.1458 111.196 34.211C111.532 34.2763 111.877 34.3089 112.231 34.3089H116.928L112.709 40.7171Z" fill="white"/>
<path d="M116.61 40.7171L124.782 12.3447H128.603C128.816 12.8012 129.01 13.3556 129.187 14.0079C129.382 14.6275 129.55 15.3124 129.691 16.0624C129.851 16.7799 129.974 17.5137 130.063 18.2638C130.169 19.0138 130.231 19.7313 130.249 20.4161L132.557 12.3447H137.625L129.452 40.7171H124.384L126.428 33.624C126.463 33.1675 126.489 32.7435 126.507 32.3522C126.525 31.9608 126.534 31.5858 126.534 31.227C126.534 30.1182 126.472 29.1399 126.348 28.292C126.224 27.444 126.091 26.645 125.95 25.895L121.678 40.7171H116.61Z" fill="white"/>
<path d="M132.801 40.7171V34.3089H147.953L152.437 18.7529H148.404L152.623 12.3447H163.767L159.575 18.7529H157.505L151.163 40.7171H132.801Z" fill="white"/>
<path d="M157.117 40.7171L165.289 12.3447H173.117C174.373 12.3447 175.266 12.6708 175.797 13.323C176.345 13.9427 176.628 14.709 176.646 15.6222C176.646 16.3723 176.504 17.2528 176.221 18.2638L175.054 22.275C174.806 23.1229 174.532 23.8404 174.231 24.4274C173.948 25.0144 173.665 25.5036 173.382 25.895C173.117 26.2537 172.86 26.5309 172.613 26.7266C172.383 26.9223 172.188 27.069 172.029 27.1668C172.011 27.1668 171.994 27.1831 171.976 27.2158L171.923 27.3136C172.153 27.6071 172.312 27.9658 172.4 28.3898C172.489 28.8138 172.533 29.2703 172.533 29.7595C172.533 30.2161 172.489 30.6889 172.4 31.1781C172.33 31.6347 172.241 32.0587 172.135 32.45L169.747 40.7171H164.706L167.253 31.9119C167.341 31.3575 167.385 30.9498 167.385 30.6889C167.385 30.428 167.377 30.265 167.359 30.1998C167.217 29.6454 167.076 29.3192 166.934 29.2214C166.793 29.091 166.643 29.0257 166.483 29.0257H166.112C165.723 29.3192 165.466 29.7269 165.342 30.2487L162.317 40.7171H157.117ZM168.818 18.704L167.385 23.7426C167.385 23.8404 167.483 23.8893 167.677 23.8893H167.943C168.067 23.8893 168.243 23.8241 168.473 23.6937C168.703 23.5306 168.942 23.3186 169.19 23.0577C169.438 22.7968 169.667 22.5033 169.88 22.1772C170.092 21.8185 170.251 21.4597 170.357 21.101L170.543 20.514C170.614 20.2857 170.649 20.09 170.649 19.927C170.632 19.3726 170.543 19.0301 170.384 18.8997C170.225 18.7692 170.03 18.704 169.8 18.704H168.818Z" fill="white"/>
<path d="M185.148 12.3447H193.426L185.254 40.7171H180.186L183.37 29.7106H179.947L176.763 40.7171H171.721L176.789 23.1066C177.161 21.8022 177.647 20.514 178.249 19.2421C178.85 17.9376 179.522 16.7799 180.265 15.7689C181.008 14.758 181.795 13.9427 182.627 13.323C183.458 12.6708 184.298 12.3447 185.148 12.3447ZM186.527 18.7529C186.085 18.7855 185.652 18.8508 185.227 18.9486C184.803 19.0138 184.387 19.1932 183.98 19.4867C183.591 19.7802 183.211 20.2368 182.839 20.8564C182.468 21.4434 182.114 22.275 181.778 23.3512H185.201L186.527 18.7529Z" fill="white"/>
<path d="M195.458 40.7171H187.233L191.452 34.3089H195.007C195.396 34.3089 195.759 34.26 196.095 34.1621C196.431 34.0643 196.75 33.8686 197.05 33.5751C197.351 33.249 197.643 32.8087 197.926 32.2543C198.209 31.6999 198.492 30.9498 198.775 30.0041H195.591C194.512 30.0041 193.734 29.5312 193.256 28.5855C192.778 27.6071 192.54 26.3842 192.54 24.9166C192.54 24.0687 192.61 23.1556 192.752 22.1772C192.911 21.1988 193.132 20.2205 193.415 19.2421L195.405 12.3447H200.447L198.536 18.9975C198.289 19.8454 198.165 20.5629 198.165 21.1499C198.165 22.0957 198.412 22.7479 198.908 23.1066C199.403 23.4328 199.978 23.5958 200.632 23.5958L203.87 12.3447H208.911L203.843 29.9552C203.472 31.2597 203.029 32.5641 202.516 33.8686C202.003 35.1405 201.402 36.2819 200.712 37.2929C200.04 38.3039 199.262 39.1355 198.377 39.7877C197.51 40.4073 196.537 40.7171 195.458 40.7171Z" fill="white"/>
</g>
<defs>
<clipPath id="clip0_263_1371">
<rect width="243.232" height="50.2769" fill="white" transform="translate(0 0.361572)"/>
</clipPath>
</defs>
</svg>
