<svg width="21" height="21" viewBox="0 0 21 21" fill="none" xmlns="http://www.w3.org/2000/svg">
<path fill-rule="evenodd" clip-rule="evenodd" d="M9.55023 0.499939C14.5208 0.499939 18.5502 4.52938 18.5502 9.49994C18.5502 11.6247 17.8139 13.5775 16.5825 15.1171L20.2573 18.7928C20.6479 19.1834 20.6479 19.8165 20.2573 20.207C19.8969 20.5675 19.3296 20.5953 18.9373 20.2902L18.8431 20.207L15.1674 16.5322C13.6278 17.7636 11.675 18.4999 9.55023 18.4999C4.57967 18.4999 0.550232 14.4705 0.550232 9.49994C0.550232 4.52938 4.57967 0.499939 9.55023 0.499939ZM9.55023 2.49994C5.68424 2.49994 2.55023 5.63394 2.55023 9.49994C2.55023 13.3659 5.68424 16.4999 9.55023 16.4999C13.4162 16.4999 16.5502 13.3659 16.5502 9.49994C16.5502 5.63394 13.4162 2.49994 9.55023 2.49994Z" fill="white"/>
</svg>
