<svg width="24" height="25" viewBox="0 0 24 25" fill="none" xmlns="http://www.w3.org/2000/svg">
<path d="M1 9.66724H5L10 5.66724V19.6672L5 15.6672H1V9.66724Z" stroke="white" stroke-width="2" stroke-linecap="round" stroke-linejoin="round"/>
<path d="M19.702 4.5C20.7234 5.52144 21.5337 6.73407 22.0865 8.06866C22.6393 9.40324 22.9238 10.8336 22.9238 12.2782C22.9238 13.7227 22.6393 15.1531 22.0865 16.4877C21.5337 17.8223 20.7234 19.0349 19.702 20.0564" stroke="white" stroke-width="2" stroke-linecap="round"/>
<path d="M15.435 8.30322C15.9922 8.86037 16.4341 9.52181 16.7357 10.2498C17.0372 10.9777 17.1924 11.7579 17.1924 12.5459C17.1924 13.3338 17.0372 14.114 16.7357 14.842C16.4341 15.5699 15.9922 16.2314 15.435 16.7885" stroke="white" stroke-width="2" stroke-linecap="round"/>
</svg>
